<svg xmlns="http://www.w3.org/2000/svg" id="Layer_1" version="1.1" viewBox="0 0 1024 1024"><defs><linearGradient id="linear-gradient" x1="838.1" x2="344.8" y1="550.6" y2="721.2" gradientTransform="matrix(1 0 0 -1 0 1024)" gradientUnits="userSpaceOnUse"><stop offset="0" stop-color="#1f9364"/><stop offset="1" stop-color="#8cc16e"/></linearGradient><linearGradient id="linear-gradient1" x1="663.3" x2="362.2" y1="633.7" y2="803.9" gradientTransform="matrix(1 0 0 -1 0 1024)" gradientUnits="userSpaceOnUse"><stop offset="0" stop-color="#42a064"/><stop offset="1" stop-color="#8bc16e"/></linearGradient><linearGradient id="linear-gradient2" x1="793.1" x2="247.1" y1="657.2" y2="482.6" gradientTransform="matrix(1 0 0 -1 0 1024)" gradientUnits="userSpaceOnUse"><stop offset="0" stop-color="#c9d1d0"/><stop offset="1" stop-color="#f0f0ee"/></linearGradient><linearGradient id="linear-gradient3" x1="565.3" x2="382.6" y1="541.6" y2="202.6" gradientTransform="matrix(1 0 0 -1 0 1024)" gradientUnits="userSpaceOnUse"><stop offset="0" stop-color="#005747"/><stop offset="1" stop-color="#0c885e"/></linearGradient><linearGradient id="linear-gradient4" x1="526.9" x2="307.5" y1="396.9" y2="161.6" gradientTransform="matrix(1 0 0 -1 0 1024)" gradientUnits="userSpaceOnUse"><stop offset="0" stop-color="#01372d"/><stop offset="1" stop-color="#026858"/></linearGradient><style>.st5{fill:#6eb35c}.st7{fill:#167b52}.st10{fill:#2a965d}.st11{fill:#e0e4e1}.st12{fill:#fdfdfd}</style></defs><path d="M0 0h1024v1024H0z" class="st12"/><path d="m377.9 160.9 71.4-40.5c13.5-7.8 34.1-21.8 48.2-26.4 8.3-2.7 19.2-3.1 27.7-.8 12.3 3.4 30.1 15.8 41.8 22.3l113.2 65L797.8 248l46.5 26.4c12.1 6.8 24.5 13.2 36.3 20.4 4.2 2.5 9.1 5.6 11.6 9.9 2.2 3.8 2 7.9 1.9 12.1.1 8.5 1.8 18.5-4.5 25.3-7 7.5-23.4 15.3-32.5 20.6-7.8 4.5-15.7 9.5-23.8 13.5 11.5 10.1 29 17.9 42.5 25.4 4.7 2.6 10 5.2 14 8.9 2.8 2.6 5.4 6.4 5.6 10.4 0 1.3 0 3.4-.6 4.5l-.5-.6c-3.3 5.3-5.6 8.6-10.9 11.9-9.3 5.8-19.4 10.5-29 15.8-14 7.7-27.8 15.9-41.7 23.6l-148 82.2-89.7 51c-11.7 6.6-36.6 21.8-48.2 24.6-2.4.6-5.1 1.1-7.5 1.2 2.8-3 11-2.2 15-4.6 14.7-8.9 30.4-16.5 45.3-25 41.1-23.7 82.5-47 124.1-69.8l44.3-24.8c5.1-2.8 10-5.7 15.1-8.5 1.8-1 4-1.6 5.7-2.9.3-1 .6-1.8.5-2.8-3.8-1.3-7.8.4-11.7.4-1.4 0-2.1-1.1-3.1-1.9-2 0-3.7 1.6-5.6 2-1.8.4-3.8-.4-5.3-1.6-1-.8-1.3-1.4-1.5-2.6 1.5-1.1 3.6-.4 4.6-1.6-.4-.6-.8-1.1-1.4-1.5-2.2-1.2-1.7.6-3.7 1.1-2.3-7.8 11.6-13.1 12-24.2h-.7c-2.3 1.4-4.8 2.3-7.2 3.7-12 6.8-24.2 13.5-36.3 20.1L626.6 537l-66.5 37.4-21.5 12.3c-3.6 2.1-7.3 4.6-11.2 6.3-6.7 3-14.6 4.5-21.9 3.5-3.8-.5-7.7-2.2-11.1-3.9-5.8-3-11.4-6.6-17-9.9-9.1-5.2-18.3-10.3-27.4-15.4-23.3-12.9-47.2-25.2-69.9-39-1.3-.8-2.1-1.5-3-2.7-5.2-4-19.2-10.9-25.6-14.5l-99.9-56.2c-13.2-7.5-27.1-14.4-40-22.3-1.7-1.1-3.6-2.3-4.7-4-.9-1.3-1.6-3.4-1-4.9 1.9-4.6 27.9-16.8 33.3-19.4-4.9-3.2-10.3-5.7-15.4-8.7-4.5-2-8.9-4.7-13.2-7.1-10-5.6-19.8-11.6-29.8-17.3-13.4-7.7-31.9-16.7-44-25.4-3.6-2.6-5.8-5.5-6.5-9.8-1.1-5.9-1.1-23 .5-28.4 1.5-5 7.6-9.1 11.8-11.9 7.6-5.1 16-9.1 24-13.6l55.5-31.6c51.6-30.3 103.4-60.1 155.6-89.4Z" style="fill:url(#linear-gradient)"/><path d="M381.6 208.7c65.2-25.1 136.8-28.3 203.9-9.2 12.9 3.6 25.5 7.4 37.7 12.8 35.5 15.5 74.2 39.9 88.7 77.6 6.5 16.7 6.9 35.5-.6 52-13.9 30.6-47.3 52.3-78.1 63.7-74.5 27.5-167.2 22.6-238.9-10.7-19-8.8-34.2-19.5-50.4-32.7-11.3-11-21.5-22.1-28.1-36.6-8.4-18.1-9.1-37.9-2.1-56.6 11.1-29.7 40.4-47.8 67.9-60.4Z" class="st12"/><path d="M484.8 199.7c7.7-.5 15.7 0 23.4.2 52.1 1.7 110.6 16.2 151.9 49.5 18.4 14.9 35.5 35 37.9 59.5 1.8 18.1-4.4 34.1-15.8 47.8-20.9 25-58.2 41.7-89.6 48.4-16.6 3.5-33.8 4.9-50.7 6.3-62.1 2.5-135.3-13.5-182.7-56-15.9-14.3-30.1-34.8-31.3-56.8-1-18.7 6.7-34.5 19.1-48.1 33.2-36.3 90.6-48.8 137.8-50.8" style="fill:url(#linear-gradient1)"/><path d="M495.5 239c6.9 5.1 14.1 9.9 21.2 14.7-4.5 2.1-9.3 3.6-14 5.3-11.4 4.2-24.3 8.8-34.5 15.3 13.1 5.8 25.4 13.4 38.4 19.7 24.6-7.9 49.9-14.1 75.8-9.1 11 2.1 23.6 7.4 30 17.1 2.8 4.2 3.7 8.9 2.6 13.8-2.8 12-14.4 20.4-24.1 26.6 8.2 4.5 16.2 9.6 24.4 14.2-5 3.7-10.7 6.4-16.4 8.9-7.7-3.5-14.9-8.4-22.2-12.7-19.1 10.2-37.3 18.1-59 20.9-1.1.1-1.9.2-3-.2-5.3-2-17.9-12.9-23.6-17 23.7-1.4 43-8 64.4-17.9-13.1-8.2-26.8-15.4-39.9-23.6-20.4 6.9-40.2 13.5-62.1 12.9-12.4-.3-28.3-3.2-37-12.8-3.4-3.8-5-8.4-4.8-13.5.8-14.6 12.9-23.2 22.7-32.1-7.4-4.5-15.1-8.4-22.4-13 5.9-2.8 11.8-5.5 17.8-8.1 6.8 3.4 13.2 7.3 20 10.6 4.9-2.2 9.5-5 14.4-7.3q15.45-7.05 31.5-12.9Z" class="st12"/><path d="M553.7 306.7h2.1c6 0 13.7.7 18 5.3 1.6 1.7 2.6 3.9 2.4 6.3-.4 5.1-4.7 8.7-8.4 11.7l-7.9-4.5c-9.3-5.6-18.7-11-28.3-16.2 7.4-1.1 14.7-2.2 22.2-2.6ZM455.9 283c9.2 3.4 22.3 12.3 31.2 17.4-3.2 1.2-6.4 2.1-9.6 3.1-3.5.9-7.2 1.5-10.8 1.7-5.2.3-12.1-.1-16-4-1.5-1.4-2.3-3.2-2.3-5.3 0-4.8 4.5-9.6 7.6-12.9Z" class="st5"/><path d="m703.4 430.2 121.8-69.1 37-20.8c7.4-4.2 15.1-8.2 22-13.1 4.1-2.9 7.1-6.2 9.8-10.4.1 8.5 1.8 18.5-4.5 25.3-7 7.5-23.4 15.3-32.5 20.6-7.8 4.5-15.7 9.5-23.8 13.5 11.5 10.1 29 17.9 42.5 25.4 4.7 2.6 10 5.2 14 8.9 2.8 2.6 5.4 6.4 5.6 10.4 0 1.3 0 3.4-.6 4.5l-.5-.6c-3.3 5.3-5.6 8.6-10.9 11.9-9.3 5.8-19.4 10.5-29 15.8-14 7.7-27.8 15.9-41.7 23.6l-148 82.2-89.7 51c-11.7 6.6-36.6 21.8-48.2 24.6-2.4.6-5.1 1.1-7.5 1.2 2.8-3 11-2.2 15-4.6 14.7-8.9 30.4-16.5 45.3-25 41.1-23.7 82.5-47 124.1-69.8l44.3-24.8c5.1-2.8 10-5.7 15.1-8.5 1.8-1 4-1.6 5.7-2.9.3-1 .6-1.8.5-2.8-3.8-1.3-7.8.4-11.7.4-1.4 0-2.1-1.1-3.1-1.9-2 0-3.7 1.6-5.6 2-1.8.4-3.8-.4-5.3-1.6-1-.8-1.3-1.4-1.5-2.6 1.5-1.1 3.6-.4 4.6-1.6-.4-.6-.8-1.1-1.4-1.5-2.2-1.2-1.7.6-3.7 1.1-2.3-7.8 11.6-13.1 12-24.2h-.7c-2.3 1.4-4.8 2.3-7.2 3.7-12 6.8-24.2 13.5-36.3 20.1L626.5 537 560 574.4l-21.5 12.3c-3.6 2.1-7.3 4.6-11.2 6.3-6.7 3-14.6 4.5-21.9 3.5-3.8-.5-7.7-2.2-11.1-3.9-5.8-3-11.4-6.6-17-9.9-9.1-5.2-18.3-10.3-27.4-15.4-23.3-12.9-47.2-25.2-69.9-39-1.3-.8-2.1-1.5-3-2.7-5.2-4-19.2-10.9-25.6-14.5l-99.9-56.2c-13.2-7.5-27.1-14.4-40-22.3-1.7-1.1-3.6-2.3-4.7-4-.9-1.3-1.6-3.4-1-4.9 1.9-4.6 27.9-16.8 33.3-19.4-4.9-3.2-10.3-5.7-15.4-8.7-4.5-2-8.9-4.7-13.2-7.1-10-5.6-19.8-11.6-29.8-17.3-13.4-7.7-31.9-16.7-44-25.4-3.6-2.6-5.8-5.5-6.5-9.8.4-4.8-.4-13.5.9-17.5.9 1 .6 4.4.7 5.9.5-1 0-2.8 1-3.3 2.7 3.1 5.4 6.2 8.7 8.8 5.5 4.2 12.7 7.2 18.8 10.6 17 9.5 34 18.7 50.9 28.4 6.9 4 15 7.8 21.3 12.6l75.3 42.7 21.5 12c3.8 2.1 7.7 4.6 11.7 6.4 2.8 2.6 8.3 4.8 11.8 6.7 7.7 4.3 15.4 8.6 23.1 13 26.3 15.2 52.7 30.1 79.2 44.9 11.3 6.4 28.6 17.9 40.2 21.8 9.6 3.2 21 3.3 30.6.2 9.4-3 18-9 26.5-13.9l27-15.2 57.6-32.4 44.8-25.2c7.2-4 14.3-8.2 21.6-11.9Z" class="st7"/><path d="m781.5 405.4 16.6 9.4c3.6 2 7.8 3.9 11.1 6.5 1.6 1.2 2.7 2.4 3.4 4.3-.1 1.6-.5 2.1-1.7 3.2-4.7 4.3-12.4 7-18 10.2-27.4 15.7-55.3 30.5-82.8 45.9l-114.5 64.4-43.8 24.7c-9.1 5.1-18.2 10.8-27.5 15.4-4.7 2.3-9.8 3.8-15.1 3.4-4.3-.3-8.1-1.9-11.9-3.8-8.5-4.4-16.7-9.7-25.1-14.4l-70.6-39.5-136.2-76.6c-16.8-9.5-34-18.4-50.8-28.1-1.6-.9-3.7-2-4.7-3.5-.4-.5-.5-1.1-.5-1.7 4-5.7 25.4-14.8 32.7-19.3 11.6 6.3 22.8 13.2 34.3 19.6l146.1 82.9 43 24.6c9.4 5.4 19.2 12.3 29.4 16 9.4 3.4 20.7 3.3 30.2.5 3.4-1 6.6-2.4 9.7-4 18.8-10.2 37.3-21.3 55.8-31.9l75.3-42.7c5.9-3.4 47-25.8 48.8-27.9 12.4-6 24.4-13.2 36.3-20.1 10.2-5.9 20.5-11.5 30.6-17.4Z" style="fill:url(#linear-gradient2)"/><path d="M784.9 403.4c15.9-8.2 32.5-18.4 48.2-27.2 11.5 10.1 29 17.9 42.5 25.4 4.7 2.6 10 5.2 14 8.9 2.8 2.6 5.4 6.4 5.6 10.4 0 1.3 0 3.4-.6 4.5l-.5-.6c-3.3 5.3-5.6 8.6-10.9 11.9-9.3 5.8-19.4 10.5-29 15.8-14 7.7-27.8 15.9-41.7 23.6l-148 82.2-89.7 51c-11.7 6.6-36.6 21.8-48.2 24.6-2.4.6-5.1 1.1-7.5 1.2 2.8-3 11-2.2 15-4.6 14.7-8.9 30.4-16.5 45.3-25 41.1-23.7 82.5-47 124.1-69.8l44.3-24.8c5.1-2.8 10-5.7 15.1-8.5 1.8-1 4-1.6 5.7-2.9.3-1 .6-1.8.5-2.8-3.8-1.3-7.8.4-11.7.4-1.4 0-2.1-1.1-3.1-1.9-2 0-3.7 1.6-5.6 2-1.8.4-3.8-.4-5.3-1.6-1-.8-1.3-1.4-1.5-2.6 1.5-1.1 3.6-.4 4.6-1.6-.4-.6-.8-1.1-1.4-1.5-2.2-1.2-1.7.6-3.7 1.1-2.3-7.8 11.6-13.1 12-24.2h-.7c-2.3 1.4-4.8 2.3-7.2 3.7-12 6.8-24.2 13.5-36.3 20.1L626.4 537l-66.5 37.4-21.5 12.3c-3.6 2.1-7.3 4.6-11.2 6.3-6.7 3-14.6 4.5-21.9 3.5-3.8-.5-7.7-2.2-11.1-3.9-5.8-3-11.4-6.6-17-9.9-9.1-5.2-18.3-10.3-27.4-15.4-23.3-12.9-47.2-25.2-69.9-39-1.3-.8-2.1-1.5-3-2.7 9.6 4.7 18.9 10.4 28.2 15.6l62.3 34.6c10 5.6 21.7 14 32.2 17.9 6 2.2 12 2.8 18.3 1.4 9.6-2.1 18.1-8.5 26.6-13.3l40.4-22.8 111.9-62.7 86.4-47.8c8.9-5 18.2-9.5 26.9-14.7 2.1-1.2 4.3-3 5.5-5.1.9-1.4 1.1-2.9.7-4.5-2.1-7-24.5-16.7-31.5-20.8Z" style="fill:#fff"/><path d="M130.5 335.8c.4-4.8-.4-13.5.9-17.5.9 1 .6 4.4.7 5.9.5-1 0-2.8 1-3.3 2.7 3.1 5.4 6.2 8.7 8.8 5.5 4.2 12.7 7.2 18.8 10.6 17 9.5 34 18.7 50.9 28.4 6.9 4 15 7.8 21.3 12.6-.3 0-.6 0-.9-.1-3.7-.7-9.1-4.8-12.4-6.7-12.2-7.1-24.5-14.1-36.8-21-5.1-2.8-10.6-6.6-16.1-8.5l-.6.4c-.3 2.8-1.3 13.8 0 15.6 2.1 2.9 9.3 5.6 12.6 7.4 8.3 4.6 16.3 9.6 24.5 14.3 6 3.4 12.2 6.5 18 10.1 1.1.7 2.1 1.4 2.9 2.5-4.5-2-8.9-4.7-13.2-7.1-10-5.6-19.8-11.6-29.8-17.3-13.4-7.7-31.9-16.7-44-25.4-3.6-2.6-5.8-5.5-6.5-9.8Z" class="st5"/><path d="m377.9 160.9.4.7c6.4-2.8 12.4-6.9 18.4-10.4.8 1.2-.2 1.7 1.2 2.5.8-.7.9-1.1 1.3-2.2.8.3 1.3.6 1.9 1.1 1.9-.5 3.5-1.3 5.2-2.2.4-1.3.7-2.5 1.5-3.6 2.1-.7 4 0 6-.2 1.9-.3 5.1-4.7 6.8-5.8 1.9-1.2 3.2.3 5.2.2 2.8 0 6.3-3.4 9.2-3.7.8 0 2.3.4 3.2.6 1.1.8 1.8 1.4 2 2.8 1.2 7.8-12.3 20.6-9.6 28.3-.7.9-1.5 1.2-2.5 1.8-1.6.8-2.8 1.7-3.4 3.5-.4 1.1-.1 2.5 0 3.6-1.2 2.1-2 2.3-4.3 2.9-1 .3-2 .5-3 1-.8 1.4-.8 2.7-1 4.2-2.8 3.1-12.1 7.6-16.1 9.2-2.6 1-5.8 1.7-8 3.3-2.3 1.7-3.7 4-5.2 6.4l-.4.6-.2.4c-1.5.5-3.8.9-4.8 2.2l-.2.6c-27.5 12.5-56.8 30.7-67.9 60.4-7 18.7-6.3 38.5 2.1 56.6 6.7 14.4 16.9 25.6 28.1 36.6-.8.6-.4.1-.7 1.1 0 .3-.2.5-.3.8-2.5 7.6 2.8 11.5 2.8 18.1 0 4.6-4.6 8.2-5.5 12.7-1.1 5.1 1.7 10.3 2.1 15.3.2 3.1-.3 6.3-.3 9.5 0 5.1 1.4 15.7 3.6 20.4.8 1.7 2.7 2.5 3.3 4.4l-.6.5c-2.2-.7-5.1-3-7.2-2.7-4-1.8-7.9-4.3-11.7-6.4l-21.5-12-75.3-42.7c-6.3-4.8-14.4-8.7-21.3-12.6-16.8-9.7-33.9-18.9-50.9-28.4-6.1-3.4-13.3-6.4-18.8-10.6-3.3-2.5-5.9-5.6-8.7-8.8-.9.5-.5 2.2-1 3.3 0-1.5.2-4.9-.7-5.9-1.3 4-.5 12.7-.9 17.5-1.1-5.9-1.1-23 .5-28.4 1.5-5 7.6-9.1 11.8-11.9 7.6-5.1 16-9.1 24-13.6l55.5-31.6c51.6-30.3 103.4-60.1 155.6-89.4Z" style="fill:#90c46e"/><path d="M519.2 635.1c2.5 0 5.1-.6 7.5-1.2 11.6-2.8 36.5-18.1 48.2-24.6l89.7-51 148-82.2c14-7.8 27.7-15.9 41.7-23.6 9.6-5.3 19.7-10 29-15.8 5.4-3.3 7.6-6.6 10.9-11.9l.5.6c-.6 9.7 2.2 19.8-5.9 27-5.3 4.7-12.2 7.9-18.4 11.4-11.6 6.5-23.5 12.7-35 19.5.1.1.3.2.4.3 5.3 4.2 11.7 7.4 17.6 10.8 7.6 4.4 15.2 8.8 22.7 13.3 5.3 3.1 12.4 6.5 16.3 11.3 1.5 1.8 2.3 4.6 2.6 6.9.3 2.9 0 5.9 0 8.8 0 8 1.5 21.1-4.6 27.3-5.1 5.2-13.9 8.3-20.2 11.6-15.8 8.1-31.3 16.7-47 25.1-5.5 3-15.2 7.1-19.8 10.8 15.8 8 31 17.6 46.4 26.4 11.8 6.8 26.7 13.9 37.2 22.3 2.7 2.2 4.9 4.7 6 8.1.8 2.5.8 4.9.7 7.4 0 6.8 0 13.6.3 20.4 4.6 2.6 8.6 6.8 10 12 1.6 5.8.4 12.6-2.8 17.7-2.6 4.1-6.4 7.1-10.5 9.6-5.4 3.3-11.3 5.8-16.9 8.8l-50.7 27.7c-31.4 17-62.5 34.7-93.8 52-27.9 15.5-55.9 30.9-83.6 46.8-21.5 12.5-43.1 24.8-64.9 36.8l-21.8 12c-10.6 5.8-20.6 12-32.6 14.6-12.2 2.6-25.6 2.3-37.4-2.3-7-2.7-13.5-6.6-20-10.3-9.6-5.4-19.2-10.9-28.8-16.1l-129.1-72-130.2-72.2c-17.8-10-36.6-19.2-53.7-30.4-4.3-2.8-6.9-6.6-7.9-11.6-.9-4.6.2-9.9 2.9-13.8 1.7-2.5 4.9-5.2 8-5.7.5 0 .7 0 1.3-.1-1.3-4.4-1.1-9.2-.9-13.6-.5-5.4-1.2-12 .2-17.3 1-4.1 3.9-6.9 7.2-9.4 6.4-5 14.6-8.7 21.7-12.7 20.9-11.9 42.4-22.7 63.2-34.6-6.8-4.6-14.9-8.1-22.2-12.1-13.7-7.4-27.3-15-41.1-22.2-7.7-4-16.9-7.8-23.7-13.3-8.9-7.2-4.8-16.3-6-26.1v-.8c0-3.2-.2-6.6.7-9.7.6-2.1 1.7-3.8 3.3-5.3 7.2-6.7 26.3-15.6 35.7-20.9 2.8-1.5 22.4-12.7 23.7-12.7.6 0 1.1.3 1.7.5l.3-.7c-4.1-2.8-8.8-5-13.1-7.6-5-1.3-36.9-19.5-42.7-23.4-2-1.3-4-2.9-5.7-4.6-1.1-1.1-2.2-2.3-2.8-3.7-2.1-5-.8-16.5-.8-22.4 2.1 3.3 4.3 6.1 7.4 8.6 5.3 4.3 12 7.4 18 10.7 13.1 7.2 26.5 13.9 39.2 21.8 22.5 11.6 44.2 24.8 66.3 37L411.5 587l53.7 30.2c8.6 4.7 17 10.2 26.1 13.9 8 3.3 19.6 5.6 28.2 3.7Z" style="fill:url(#linear-gradient3)"/><path d="M519.2 635.1c2.5 0 5.1-.6 7.5-1.2 11.6-2.8 36.5-18.1 48.2-24.6l89.7-51 148-82.2c14-7.8 27.7-15.9 41.7-23.6 9.6-5.3 19.7-10 29-15.8 5.4-3.3 7.6-6.6 10.9-11.9l.5.6c-.6 9.7 2.2 19.8-5.9 27-5.3 4.7-12.2 7.9-18.4 11.4-11.6 6.5-23.5 12.7-35 19.5.1.1.3.2.4.3 5.3 4.2 11.7 7.4 17.6 10.8 7.6 4.4 15.2 8.8 22.7 13.3 5.3 3.1 12.4 6.5 16.3 11.3 1.5 1.8 2.3 4.6 2.6 6.9.3 2.9 0 5.9 0 8.8 0 8 1.5 21.1-4.6 27.3-5.1 5.2-13.9 8.3-20.2 11.6-15.8 8.1-31.3 16.7-47 25.1-5.5 3-15.2 7.1-19.8 10.8-1.2-.1-1.8.3-2.8.8-20.2 9.8-39.6 21.6-59.4 32.2l-158.6 86.2c-9.1 5-18.2 10-27.3 15.1-7.2 4.1-14.3 8.6-21.9 11.7-6.2 2.5-12.8 3.8-19.5 3.8-6.6 0-13.4-.9-19.5-3.4-10.1-4-19.8-10.4-29.3-15.6l-52-28.6L264 631.2c-4.9-2.6-38.1-21.7-41.4-21.2-6.8-4.6-14.9-8.1-22.2-12.1-13.7-7.4-27.3-15-41.1-22.2-7.7-4-16.9-7.8-23.7-13.3-8.9-7.2-4.8-16.3-6-26.1v-.8c0-3.2-.2-6.6.7-9.7.6-2.1 1.7-3.8 3.3-5.3 7.2-6.7 26.3-15.6 35.7-20.9 2.8-1.5 22.4-12.7 23.7-12.7.6 0 1.1.3 1.7.5l.3-.7c-4.1-2.8-8.8-5-13.1-7.6-5-1.3-36.9-19.5-42.7-23.4-2-1.3-4-2.9-5.7-4.6-1.1-1.1-2.2-2.3-2.8-3.7-2.1-5-.8-16.5-.8-22.4 2.1 3.3 4.3 6.1 7.4 8.6 5.3 4.3 12 7.4 18 10.7 13.1 7.2 26.5 13.9 39.2 21.8 22.5 11.6 44.2 24.8 66.3 37L411.2 587l53.7 30.2c8.6 4.7 17 10.2 26.1 13.9 8 3.3 19.6 5.6 28.2 3.7Z" class="st11"/><path d="M519.2 635.1c2.5 0 5.1-.6 7.5-1.2 11.6-2.8 36.5-18.1 48.2-24.6l89.7-51 148-82.2c14-7.8 27.7-15.9 41.7-23.6 9.6-5.3 19.7-10 29-15.8 5.4-3.3 7.6-6.6 10.9-11.9l.5.6c-.6 9.7 2.2 19.8-5.9 27-5.3 4.7-12.2 7.9-18.4 11.4-11.6 6.5-23.5 12.7-35 19.5-15.7 8.9-32.4 16.8-47.4 26.8-2 .9-3.9 1.8-5.7 2.8.4.1.6.2 1.1.4 6 2.5 25.8 10.7 27.8 16.4.5 1.3.4 2.5-.2 3.8-.6 1.2-1.5 2-2.5 2.7-5 3.6-11 6.3-16.4 9.3-11.5 6.5-23 13-34.6 19.4L602 651.6l-49.3 27.8c-8.9 5-20.7 13-30.3 16-8.7 2.7-18 1.9-26.1-2.3-11.7-6.1-23.1-13.5-34.6-20.1l-75.5-42.1-99.6-55c-23.8-13-48-25.4-71.4-39.1-2.2-1.3-5.7-3.1-6.5-5.7 1.9-5 25.5-15.6 31.6-19.2l-3.8-2.1c-13.5-8-27.5-16-41.5-22.9-4.1-2.8-8.8-5-13.1-7.6-5-1.3-36.9-19.5-42.7-23.4-2-1.3-4-2.9-5.7-4.6-1.1-1.1-2.2-2.3-2.8-3.7-2.1-5-.8-16.5-.8-22.4 2.1 3.3 4.3 6.1 7.4 8.6 5.3 4.3 12 7.4 18 10.7 13.1 7.2 26.5 13.9 39.2 21.8 22.5 11.6 44.2 24.8 66.3 37l150.4 83.9 53.7 30.2c8.6 4.7 17 10.2 26.1 13.9 8 3.3 19.6 5.6 28.2 3.7Z" class="st11"/><path d="M519.2 635.1c2.5 0 5.1-.6 7.5-1.2 11.6-2.8 36.5-18.1 48.2-24.6l89.7-51 148-82.2c14-7.8 27.7-15.9 41.7-23.6 9.6-5.3 19.7-10 29-15.8 5.4-3.3 7.6-6.6 10.9-11.9l.5.6c-.6 9.7 2.2 19.8-5.9 27-5.3 4.7-12.2 7.9-18.4 11.4-11.6 6.5-23.5 12.7-35 19.5-15.7 8.9-32.4 16.8-47.4 26.8-2 .9-3.9 1.8-5.7 2.8-24.3 13-48.1 27-72.2 40.5L594.4 618l-36.7 20.7c-10 5.7-19.5 12-30.6 15.3-10.7 3.1-23.2 2.9-33.7-.8-8.2-2.9-16-8-23.5-12.3l-41.5-23.6c-62.8-34.9-125-71-188.1-105.5l-3.8-2.1c-13.5-8-27.5-16-41.5-22.9-4.1-2.8-8.8-5-13.1-7.6-5-1.3-36.9-19.5-42.7-23.4-2-1.3-4-2.9-5.7-4.6-1.1-1.1-2.2-2.3-2.8-3.7-2.1-5-.8-16.5-.8-22.4 2.1 3.3 4.3 6.1 7.4 8.6 5.3 4.3 12 7.4 18 10.7 13.1 7.2 26.5 13.9 39.2 21.8 22.5 11.6 44.2 24.8 66.3 37l150.4 83.9 53.7 30.2c8.6 4.7 17 10.2 26.1 13.9 8 3.3 19.6 5.6 28.2 3.7Z" class="st10"/><path d="M130 425.2c2.1 3.3 4.3 6.1 7.4 8.6 5.3 4.3 12 7.4 18 10.7 13.1 7.2 26.5 13.9 39.2 21.8-.3 0-.7 0-1-.1-3.6-.6-8.2-4-11.4-5.8-5.3-3-35.5-20.7-39.8-21.2-1 .8-1 1.8-1.1 3.1v.7c0 3.1-4.4 9.4-3.4 10.6 5 5.8 43.5 22.4 44.3 25.8-5-1.3-36.9-19.5-42.7-23.4-2-1.3-4-2.9-5.7-4.6-1.1-1.1-2.2-2.3-2.8-3.7-2.1-5-.8-16.5-.8-22.4ZM129.6 535.7c1.6.4 6.9 7.4 9.4 9 7 4.4 14.8 8 22 11.9 14.8 7.9 29.6 16 44.4 24.1l172.8 94.7c28.2 15.4 56 31.6 84.1 47.1 10.5 5.8 23.1 13.9 33.9 18.4 8.3 3.4 18.2 3.8 26.9 1.8 14-3.2 34.4-16.6 47.4-23.7l88.3-49c10.3-5.8 20.4-11.9 30.8-17.6l146.6-80.3c8.9-5 17.8-9.9 26.8-14.8 7.2-3.8 14.6-7.4 21.5-11.7 4.7-2.9 7.8-6 10.7-10.7 0 8 1.5 21.1-4.6 27.3-5.1 5.2-13.9 8.3-20.2 11.6-15.8 8.1-31.3 16.7-47 25.1-5.5 3-15.2 7.1-19.8 10.8-1.2-.1-1.8.3-2.8.8-20.2 9.8-39.6 21.6-59.4 32.2l-158.6 86.2c-9.1 5-18.2 10-27.3 15.1-7.2 4.1-14.3 8.6-21.9 11.7-6.2 2.5-12.8 3.8-19.5 3.8-6.6 0-13.4-.9-19.5-3.4-10.1-4-19.8-10.4-29.3-15.6l-52-28.6-149.1-80.5c-4.9-2.6-38.1-21.7-41.4-21.2-6.8-4.6-14.9-8.1-22.2-12.1-13.7-7.4-27.3-15-41.1-22.2-7.7-4-16.9-7.8-23.7-13.3-8.9-7.2-4.8-16.3-6-26.1v-.8Z" class="st5"/><path d="m236.6 509.8 3.8 2.1c-6.1 3.6-29.6 14.2-31.6 19.2.8 2.5 4.2 4.4 6.5 5.7 23.4 13.6 47.6 26.1 71.4 39.1l99.6 55 75.5 42.1c11.5 6.5 22.9 13.9 34.6 20.1 8 4.2 17.4 5 26.1 2.3 9.6-3 21.4-10.9 30.3-16l49.3-27.8 155.5-86.7c11.6-6.4 23.1-12.8 34.6-19.4 5.4-3 11.4-5.7 16.4-9.3 1.1-.8 1.9-1.5 2.5-2.7s.7-2.5.2-3.8c-2.1-5.7-21.8-13.9-27.8-16.4-.5-.2-.6-.2-1.1-.4 1.9-1.1 3.8-1.9 5.7-2.8 6.3 3.9 23.2 11.2 26.8 16.2 1.2 1.7 1.8 4.3 1.3 6.3-.8 3.8-4.6 6.1-7.6 8.1-6.7 4.2-13.9 7.8-20.8 11.6-10.6 5.8-21.1 11.7-31.6 17.6l-117.1 65.4-75.2 42.1c-11.8 6.6-25.1 15.2-37.5 20.1-7.4 3-15.5 3.6-23.3 1.8-9.5-2.2-17.7-8.4-26.1-13-20.1-11-39.8-22.6-59.8-33.7l-155.9-86.1c-11-6.2-22-12.3-33.1-18.3-5.7-3.1-11.7-5.8-17.2-9.3-1.7-1.1-3.9-2.6-4.9-4.4-.8-1.5-1.7-4.5-.9-6.2 2.2-4.3 25.7-15.7 31.3-18.5Z" class="st5"/><path d="M716.5 798.7c.2 0 .4-.1.5-.2 6.5-2.8 13-7.2 19.1-10.7l46.9-26.3c22.4-12.2 44.6-24.5 66.9-36.9 11.7-6.4 24.4-12.1 35.3-19.7 4.1-2.8 6.7-6 8.6-10.5 4.6 2.6 8.6 6.8 10 12 1.6 5.8.4 12.6-2.8 17.7-2.6 4.1-6.4 7.1-10.5 9.6-5.4 3.3-11.3 5.8-16.9 8.8l-50.7 27.7c-31.4 17-62.5 34.7-93.8 52-27.9 15.5-55.9 30.9-83.6 46.8-21.5 12.5-43.1 24.8-64.9 36.8l-21.8 12c-10.6 5.8-20.6 12-32.6 14.6-12.2 2.6-25.6 2.3-37.4-2.3-7-2.7-13.5-6.6-20-10.3-9.6-5.4-19.2-10.9-28.8-16.1l-129.1-72-130.2-72.2c-17.8-10-36.6-19.2-53.7-30.4-4.3-2.8-6.9-6.6-7.9-11.6-.9-4.6.2-9.9 2.9-13.8 1.7-2.5 4.9-5.2 8-5.7.5 0 .7 0 1.3-.1 1.4 3.4 4.3 5.8 7.4 7.6 6.3 3.8 12.9 7 19.3 10.5l36.7 20.6 158.8 87.7 99.9 56c8.3 4.6 16.7 9 24.9 13.7 6.5 3.7 12.9 8 19.8 10.9 9.1 3.9 20.6 3.2 29.7-.4 11.8-4.8 23.5-12.4 34.7-18.7 22.3-12.3 44.6-24.8 66.7-37.6l56.3-32c10.2-5.7 21.3-11.1 31-17.6Z" class="st11"/><path d="M130.4 684.2q.3-3.6.3-7.2c3.2 3.4 10.2 10.3 14.6 11.3 6.2 3.7 18.8 11.8 25.2 13.5 2.3 2.6 15.5 9 19.4 11 5.1 3.2 39.6 23.1 43.4 23.9 10.1 6.1 20.6 11.3 30.9 17l71.3 40.1c9.4 5.2 18.9 10.5 28.3 15.6 5.2 2.9 11 6.9 16.6 8.7l.3.2c2.5 1.9 5.5 3.3 8.2 4.8 4 2.4 12.4 7.9 16.6 9 21.1 12.1 42.3 24.3 63.9 35.5l1.1.5c6.7 4.1 16.8 10.9 23.8 13.5 1.5 1.4 3.5 2.2 5.5 3 7.4 2.7 16.9 3.1 24.4.8 10.8-3.3 28.9-14.6 39.6-20.5C596 847 628 828.8 660 810.5l27.3-15.5c5.3-3 10.5-6.5 16-9-.9.9-1.6 1.7-2.4 2.7 0 1.4.1 1.8 1.2 2.9.3.4.7.7 1.1 1 1.8 1.6 2.9 3.4 3 5.9 0 1.4-.2 2.2.6 3.4 3.2.6 5.9-3.3 9.3-3.3h.3c-9.7 6.5-20.8 11.8-31 17.6l-56.3 32c-22.1 12.7-44.3 25.3-66.7 37.6-11.2 6.2-22.8 13.9-34.7 18.7-9.1 3.7-20.6 4.3-29.7.4-6.8-2.9-13.3-7.2-19.8-10.9-8.2-4.7-16.6-9.1-24.9-13.7l-99.9-56-158.8-87.7-36.7-20.6c-6.4-3.5-13.1-6.8-19.3-10.5-3.1-1.9-6-4.2-7.4-7.6-1.3-4.4-1.1-9.2-.9-13.6Z" style="fill:url(#linear-gradient4)"/><path d="M893.6 674c0 6.8 0 13.6.3 20.4-1.9 4.5-4.5 7.7-8.6 10.5-11 7.5-23.7 13.3-35.3 19.7-22.2 12.4-44.5 24.8-66.9 36.9l-46.9 26.3c-6.2 3.5-12.7 7.9-19.1 10.7-.2 0-.4.1-.5.2h-.3c-3.4 0-6.1 3.9-9.3 3.3-.8-1.2-.5-2-.6-3.4 0-2.5-1.2-4.3-3-5.9-.4-.3-.7-.6-1.1-1-1-1-1.1-1.4-1.2-2.9.7-1 1.5-1.8 2.4-2.7 2.3-2.6 15.7-9.2 19.5-11.4l62.7-35.7c9.4-5.3 19.1-10.1 28.2-15.8 6.4-3.5 13.2-6.9 19.1-11 2.8-.3 7.6-3.9 10-5.6 5.9-2.8 11.6-6.4 17.3-9.5 8-3.3 20.8-10.4 27-16.1 2.3-2.1 4.2-4.7 6.1-7.1Z" style="fill:#052d30"/><path d="M233.3 736.8c1.2 0 3 0 3.9.7 5.2 4.2 11.4 6.1 17.1 9.2 5.2 2.8 10.5 7.1 16.1 8.8 1 .3 1.1.6 1.8 1.3 3.5 3.8 13.9 8.2 18.9 11 6.5 3.6 12.8 7.6 19.3 11.2 10.8 6 67 35.4 70 39.3-5.6-1.8-11.4-5.9-16.6-8.7-9.5-5.2-18.9-10.4-28.3-15.6l-71.3-40.1c-10.2-5.8-20.8-10.9-30.9-17ZM405.5 832.3c1.1 0 1.9.1 3 .6 9.1 4 18.1 10 26.8 14.9 11.2 6.4 22.6 12.2 33.7 18.7l.4 1.4c-21.6-11.2-42.8-23.4-63.9-35.5ZM145.3 688.3c.4-.1.9-.4 1.3-.4 1.5.2 7.1 3.8 8.7 4.6 3.4 1.9 13.3 6.5 15.2 9.2-6.4-1.7-18.9-9.8-25.2-13.5ZM470.5 868.4c.8 0 1.4 0 2.2.3 2.5.9 19.3 10.1 20.8 11.7.4.4.6 1 .9 1.5-7-2.5-17.2-9.4-23.8-13.5ZM170.5 701.8c3.5 0 15.6 7.2 18.9 9.4.2.6.4 1.1.5 1.7-3.9-2-17.1-8.5-19.4-11Z" class="st10"/><path d="m814 723.4.2-.9c3.6-3.2 14.3-8.9 18.9-10.1-5.9 4.2-12.8 7.5-19.1 11M843.1 706.7c1.3-2.7 8.8-6.1 11.6-7.5 1.5-.8 4.2-2.5 5.8-2-5.7 3.1-11.5 6.7-17.3 9.5Z" class="st7"/><path d="M380.7 818.5c3.1.5 5.4 1.5 7.8 3.5l.4 1.3c-2.8-1.5-5.7-2.9-8.2-4.8" class="st10"/><path d="M775.1 651.8c7.5-.6 14.9-.4 22.3.9 5.2.9 11.6 2.5 14.7 7.2 1.9 3 1.9 6.7 1.1 10.1-2.8 11.6-13.7 20.5-23.5 26.3-22.4 13.1-48 15.2-72.8 8.8-5.9 4.2-12.5 7.5-18.8 11.2l-36.2 21.8c-41.8 25.4-83.3 51.1-124.7 77.2-4.3 2.7-8.9 6.1-14.1 6.8-5.3.7-13.5-1.5-17.7-4.9-1.3-1.1-1.6-1.9-1.8-3.6 3.7-4.5 22.1-13.4 28.1-16.7 45.2-24.9 91-48.2 136.8-71.8 14.7-7.6 29.2-15.5 44-23-.8-2-1.6-3.9-1.9-6-.9-6.4 1.8-12.5 5.7-17.4 13.6-17 37.8-24.5 58.7-26.9ZM223.9 641.9c14 5.7 90.6 46.7 98.2 55.7 1.8 2.1 2.8 5.7 2.5 8.4-.4 3.9-2.8 6.4-5.7 8.8 24.8 13.5 49.8 26.6 75.1 39.2 13.7 6.8 27.4 13.7 41.1 20.6 6.9 3.5 14.1 6.6 20.9 10.3 1.5.8 2.9 1.6 3.7 3.2.6 1.3.8 3 0 4.3-.8 1.5-2.5 2.4-4 3-3.6 1.5-10 3-13.8 1.8-6.7-2.1-23.9-14.3-30.8-18.7-22.5-14.1-45.1-27.8-68-41.3-7.7-4.5-18.6-12.1-26.1-15.7-8.2-4-24.3 5.9-40.9-1.2-9.5-4.1-85.6-46.4-86.8-49.3 3.7-.4 10.4 4 13.8 5.7 12.2 6.1 73.9 37.2 82.2 36 1.2-.2 1.4-.2 2-1.2-3.8-3.6-12-6.7-16.8-9.4L221.9 675c-7.2-4.1-15-7.9-21.8-12.7.3-1.2.3-1 1.2-1.7 10.5 5.1 20.7 11.1 31 16.6 12.8 6.6 25.6 13.1 38.6 19.3 6.6 3.2 15 8.5 22.2 9.5 1.3.2 2.3.3 3.3-.5-1.9-3.3-65.9-40.4-74.3-45.3-3.2-1.9-10-4.3-12.2-7.1l1-.9c1.4-.2 2.3.3 3.6.8 8.2 3.5 16.2 8.5 24 12.7l44.9 24.2c4.4 2.4 15.5 9.6 19.6 10.3.8.1.8-.1 1.4-.5 0-.5.2-1 0-1.4-.4-2-12.6-9.9-14.7-11.4-7.8-5.6-15.2-11.8-23.3-17-10.1-6.5-20.4-12.7-30.8-18.7-3.6-2.1-9.3-4.3-12.3-6.8-.3-.3-.4-.5-.6-.9l.7-1.8Z" class="st12"/></svg>